<svg height="512pt" viewBox="0 0 512 512" width="512pt" xmlns="http://www.w3.org/2000/svg" xmlns:xlink="http://www.w3.org/1999/xlink"><linearGradient id="a" gradientUnits="userSpaceOnUse" x1="256" x2="256" y1="0" y2="512"><stop offset="0" stop-color="#2af598"/><stop offset="1" stop-color="#009efd"/></linearGradient><path d="m452 40h-24v-40h-40v40h-264v-40h-40v40h-24c-33.085938 0-60 26.914062-60 60v352c0 33.085938 26.914062 60 60 60h392c33.085938 0 60-26.914062 60-60v-352c0-33.085938-26.914062-60-60-60zm-392 40h24v40h40v-40h264v40h40v-40h24c11.027344 0 20 8.972656 20 20v48h-432v-48c0-11.027344 8.972656-20 20-20zm392 392h-392c-11.027344 0-20-8.972656-20-20v-264h432v264c0 11.027344-8.972656 20-20 20zm-379-136h110v-110h-110zm40-70h30v30h-30zm290 25h-40v-40h40zm-74 140h110v-110h-110zm40-70h30v30h-30zm-155-110h40v40h-40zm115 40h-40v-40h40zm0 0" fill="url(#a)"/></svg>