<svg height="512" viewBox="0 0 60 60" width="512" xmlns="http://www.w3.org/2000/svg"><g id="010---Health-Warning" fill="none"><g id="Layer_3" transform="translate(1 1)"><path id="Shape" d="m52 14.38c0 8.74-4.81 12.7-8.58 16.24l-2.73-4.66c-.3528277-.5949741-.9932764-.9597723-1.685-.9597723s-1.3321723.3647982-1.685.9597723l-11.6 19.8c-1.86-1.57-12.58-10.64-16.09-14.14-3.85-3.83-9.63-7.66-9.63-17.25s5.78-14.37 13.48-14.37c5.2752622.02835289 10.098585 2.98321596 12.52 7.67 2.421415-4.68678404 7.2447378-7.64164711 12.52-7.67 7.7 0 13.48 4.79 13.48 14.38z" fill="#ef314c"/><path id="Shape" d="m34.32 25.96-10.6 18.1c.926.787 1.64 1.391 2 1.7l11.6-19.8c.0552995-.0828757.1168095-.1614347.184-.235-.4015951-.4933329-1.0188629-.7593729-1.6532631-.71255-.6344002.0468228-1.2059212.4006033-1.5307369.94755z" fill="#bb193b"/><path id="Shape" d="m38.52 0c-.5 0-.982.026-1.45.072 6.911.611 11.93 5.374 11.93 14.308 0 7.291-3.347 11.252-6.645 14.422l1.065 1.818c3.77-3.54 8.58-7.5 8.58-16.24 0-9.59-5.78-14.38-13.48-14.38z" fill="#bb193b"/><path id="Shape" d="m56.06 58h-34.11c-.6961288.0012735-1.3399735-.3692104-1.6886785-.9717066s-.3492089-1.3453247-.0013215-1.9482934l5.46-9.32 11.6-19.8c.3528277-.5949741.9932764-.9597723 1.685-.9597723s1.3321723.3647982 1.685.9597723l2.73 4.66 14.31 24.46c.3534796.5989327.358549 1.3414433.0132803 1.9451466-.3452687.6037034-.9878184.975829-1.6832803.9748534z" fill="#ffdc00"/><path id="Shape" d="m57.73 55.08-14.31-24.46-2.73-4.66c-.3252871-.5469657-.8971212-.9006759-1.5317799-.9474885-.6346587-.0468125-1.2522014.219169-1.6542201.7124885.0681388.0732726.1303354.1518542.186.235l2.73 4.66 14.31 24.46c.3534796.5989327.358549 1.3414433.0132803 1.9451466-.3452687.6037034-.9878184.975829-1.6832803.9748534h3c.6954619.0009756 1.3380116-.37115 1.6832803-.9748534.3452687-.6037033.3401993-1.3462139-.0132803-1.9451466z" fill="#fec108"/><g fill="#f44335"><circle id="Oval" cx="39" cy="52" r="2"/><rect id="Rectangle-path" height="13" rx="2" width="4" x="37" y="33"/></g></g><g id="Layer_2" fill="#000"><path id="Shape" d="m8.254 31.741c2.443 2.273 3.8 3.911 17.18 15.241l-5.036 8.6c-.5269573.9110649-.527468 2.0341392-.0013393 2.9456829.5261287.9115438 1.4988551 1.472881 2.5513393 1.4723171h34.108c1.0537874.0012588 2.0275407-.5619484 2.5519228-1.4760013.5243821-.914053.5190695-2.0389395-.0139228-2.9479987-14.986-25.6-13.953-23.728-13.853-23.821 3.68-3.425 8.259-7.687 8.259-16.375 0-9.487-5.549-15.38-14.48-15.38-5.0393237.0028802-9.7412922 2.53300494-12.52 6.737-2.7787078-4.20399506-7.4806763-6.7341198-12.52-6.737-8.931 0-14.48 5.89-14.48 15.37 0 8.694 4.576 12.951 8.254 16.371zm48.802 26.259h-34.108c-.3370823.0004717-.6488387-.1788313-.8179406-.4704291-.169102-.2915977-.1698869-.6512378-.0020594-.9435709l17.054-29.121c.1726017-.2886499.4841816-.4653721.8205-.4653721s.6478983.1767222.8205.4653721l17.044 29.12c.1715642.290489.1739137.6507347.006153.9434368s-.4797857.4727657-.817153.4715632zm-42.576-56c4.8923833.0420366 9.3627532 2.77886435 11.625 7.117.187968.31527061.5279475.50839059.895.50839059s.707032-.19311998.895-.50839059c2.2622468-4.33813565 6.7326167-7.0749634 11.625-7.117 7.814 0 12.48 5 12.48 13.38 0 7.62-3.849 11.394-7.352 14.659l-2.1-3.589c-.5323393-.9000344-1.5003199-1.4521288-2.546-1.4521288s-2.0136607.5520944-2.546 1.4521288l-10.996 18.78c-3.269-2.77-12.046-10.249-15.125-13.319-4.144-4.125-9.335-7.55-9.335-16.541 0-8.37 4.666-13.37 12.48-13.37z"/><path id="Shape" d="m11 22.005h6.49c.6344532-.0002951 1.2311348-.3016044 1.608-.812l3.944-5.166 7.389 9.173c.36501.4870846.9319662.78144 1.540365.7997347.6083987.0182948 1.1920174-.2414623 1.585635-.7057347l2.925-3.289h6.518c.5522847 0 1-.4477153 1-1s-.4477153-1-1-1h-6.52c-.5902241-.0066411-1.1516916.254421-1.527.71l-2.944 3.258-7.393-9.173c-.3811597-.5010328-.9759783-.7933595-1.6055002-.7890315s-1.220265.3048054-1.5944998.8110315l-3.92 5.188h-6.496c-.5522847 0-1 .4477153-1 1s.4477153 1 1 1z"/><path id="Shape" d="m8 21.02c.00266547-.2652204-.1001435-.5206356-.28580736-.7100502-.18566386-.1894147-.43897195-.2973109-.70419264-.2999498l-1-.01c-.54943767.0014856-.99752707.4407019-1.01.99-.00266547.2652204.1001435.5206356.28580736.7100502.18566386.1894147.43897195.2973109.70419264.2999498l1.01.01c.54840296.0000274.99451597-.4416245 1-.99z"/><path id="Shape" d="m47 22h1c.5522847 0 1-.4477153 1-1s-.4477153-1-1-1h-1c-.5522847 0-1 .4477153-1 1s.4477153 1 1 1z"/><path id="Shape" d="m40 50c-1.6568542 0-3 1.3431458-3 3s1.3431458 3 3 3 3-1.3431458 3-3-1.3431458-3-3-3zm0 4c-.5522847 0-1-.4477153-1-1s.4477153-1 1-1 1 .4477153 1 1-.4477153 1-1 1z"/><path id="Shape" d="m37 36v9c0 1.6568542 1.3431458 3 3 3s3-1.3431458 3-3v-9c0-1.6568542-1.3431458-3-3-3s-3 1.3431458-3 3zm4 0v9c0 .5522847-.4477153 1-1 1s-1-.4477153-1-1v-9c0-.5522847.4477153-1 1-1s1 .4477153 1 1z"/></g></g></svg>