<?xml version="1.0" encoding="utf-8"?>
<!-- Svg Vector Icons : http://www.onlinewebfonts.com/icon -->
<!DOCTYPE svg PUBLIC "-//W3C//DTD SVG 1.1//EN" "http://www.w3.org/Graphics/SVG/1.1/DTD/svg11.dtd">
<svg version="1.1" xmlns="http://www.w3.org/2000/svg" xmlns:xlink="http://www.w3.org/1999/xlink" x="0px" y="0px" viewBox="0 0 1000 1000" enable-background="new 0 0 1000 1000" xml:space="preserve">
<metadata> Svg Vector Icons : http://www.onlinewebfonts.com/icon </metadata>
<g><g transform="translate(0.000000,511.000000) scale(0.100000,-0.100000)"><path d="M4771.5,4496c-549.6-38.3-1049.4-170.4-1541.6-407.9c-1229.5-595.6-2083.6-1758-2277-3098.5c-17.2-116.8-30.6-247-30.6-289.2c0-70.9-7.7-80.4-109.2-147.5c-61.3-40.2-166.6-130.2-235.5-199.2c-369.6-375.4-547.7-942.2-452-1442C257.7-1773.8,795.8-2302.4,1485.2-2423c268.1-47.9,423.2-17.2,542,103.4c59.4,63.2,84.3,107.3,99.6,185.8c15.3,70.8,21.1,496,17.2,1375c-5.7,1269.7-5.7,1273.5-47.9,1352c-55.5,103.4-158.9,193.4-252.8,218.3c-74.7,19.2-74.7,19.2-65.1,101.5c19.2,143.6,120.6,515.1,189.6,693.2c342.8,863.7,1039.9,1549.3,1909.3,1874.8c831.1,310.2,1782.9,258.5,2581.5-143.6c203-101.5,515.2-314.1,702.8-480.7c515.2-455.8,900.1-1124.1,1026.5-1777.2c17.2-90,36.4-181.9,40.2-204.9c7.7-36.4-1.9-46-70.9-65.1c-122.5-32.6-254.7-174.3-283.4-306.4c-15.3-74.7-19.2-459.6-15.3-1376.9c5.7-1417.1-1.9-1329,139.8-1453.5l68.9-59.4l-72.8-139.8c-84.2-159-285.3-381.1-457.7-503.7c-157-111.1-474.9-262.4-681.8-321.7c-206.8-59.4-520.9-107.2-710.5-107.2h-143.6l-61.3,95.8c-88.1,137.9-216.4,245.1-339,279.6c-82.3,24.9-197.2,28.7-641.5,23l-542-5.8l-109.2-53.6c-204.9-101.5-321.7-298.8-321.7-549.6c0-250.9,116.8-448.1,321.7-549.6l109.2-53.6l542-5.7c444.3-5.8,559.2-1.9,641.5,23c120.6,34.5,250.9,141.7,337,277.7l61.3,93.8l185.8,13.4c739.2,47.9,1306.1,243.2,1754.2,605.1c245.1,195.4,467.3,501.8,545.8,748.8c21.1,65.1,30.6,72.7,132.1,93.8c390.7,80.4,775.6,344.7,1005.4,693.2c298.8,448.1,360,1022.6,166.6,1520.6c-113,294.9-354.3,601.3-597.5,762.2c-105.3,68.9-111.1,76.6-111.1,149.4c0,124.5-55.5,469.2-114.9,704.7c-243.2,976.7-863.7,1846.1-1723.5,2416.8c-365.8,243.2-890.5,471.1-1302.2,566.9C5596.8,4469.2,5079.8,4517.1,4771.5,4496z"/></g></g>
</svg>