<?xml version="1.0" encoding="iso-8859-1"?>
<!-- Generator: Adobe Illustrator 19.0.0, SVG Export Plug-In . SVG Version: 6.00 Build 0)  -->
<svg version="1.1" id="Capa_1" xmlns="http://www.w3.org/2000/svg" xmlns:xlink="http://www.w3.org/1999/xlink" x="0px" y="0px"
	 viewBox="0 0 512 512" style="enable-background:new 0 0 512 512;" xml:space="preserve">
<path style="fill:#BCBCCE;" d="M78.12,51.852v72.116H7.5V51.852c0-19.495,15.807-35.302,35.317-35.302
	c9.747,0,18.573,3.959,24.965,10.337C74.175,33.279,78.12,42.105,78.12,51.852z"/>
<path style="fill:#E7E7F2;" d="M78.12,51.852V495.45h353.658V123.968V51.852c0-9.747-3.944-18.573-10.337-24.965
	c-6.393-6.378-15.218-10.337-24.966-10.337H42.817c9.747,0,18.573,3.959,24.966,10.337C74.175,33.279,78.12,42.105,78.12,51.852z"/>
<path style="fill:#BCBCCE;" d="M421.441,26.887c-6.393-6.377-15.218-10.337-24.966-10.337h-25.528
	c9.747,0,18.573,3.959,24.965,10.337c6.393,6.392,10.337,15.218,10.337,24.965v72.116V495.45h25.528V123.968V51.852
	C431.777,42.105,427.833,33.279,421.441,26.887z"/>
<path style="fill:#50D399;" d="M444.649,216.729h-122.38c-7.882,27.564-30.989,48.682-59.653,53.684
	c-0.128,2.923-0.198,5.862-0.198,8.817c0,82.346,49.865,153.039,121.042,183.551C454.636,432.269,504.5,361.577,504.5,279.23
	c0-2.955-0.07-5.894-0.198-8.817C475.638,265.411,452.531,244.293,444.649,216.729z"/>
<path style="fill:#32A873;" d="M504.302,270.413c-28.664-5.002-51.771-26.12-59.653-53.684h-13.756
	c6.11,27.564,24.023,48.682,46.243,53.684c0.099,2.924,0.154,5.862,0.154,8.817c0,82.347-38.655,153.039-93.831,183.552
	C454.636,432.269,504.5,361.577,504.5,279.23C504.5,276.275,504.43,273.337,504.302,270.413z"/>
<polygon style="fill:#E36F91;" points="330.2,310.26 363.273,310.26 363.273,277.188 403.644,277.188 403.644,310.26 
	436.717,310.26 436.717,350.632 403.644,350.632 403.644,383.704 363.273,383.704 363.273,350.632 330.2,350.632 "/>
<path style="fill:#7EBFE7;" d="M246.929,120.448c0,24.704-13.359,46.283-33.245,57.923c-9.93,5.824-21.498,9.155-33.842,9.155
	c-12.343,0-23.912-3.331-33.842-9.155c-19.886-11.64-33.245-33.218-33.245-57.923c0-37.056,30.039-67.087,67.087-67.087
	S246.929,83.391,246.929,120.448z"/>
<path style="fill:#FFD2C0;" d="M203.147,109.609V123.2c0,6.394-2.571,12.184-6.736,16.393l-0.087,0.087
	c-4.216,4.217-10.043,6.824-16.48,6.824c-6.481,0-12.336-2.644-16.568-6.911c-4.166-4.209-6.736-9.999-6.736-16.393v-13.591
	c0-12.868,10.436-23.304,23.304-23.304C192.711,86.305,203.147,96.741,203.147,109.609z"/>
<path style="fill:#E36F91;" d="M213.684,169.1v9.271c-9.93,5.824-21.498,9.155-33.842,9.155c-12.343,0-23.912-3.331-33.842-9.155
	V169.1c0-12.673,6.964-23.707,17.277-29.505c4.23,4.266,10.081,6.911,16.564,6.911c6.439,0,12.263-2.609,16.484-6.822l0.08-0.089
	c2.716,1.514,5.192,3.402,7.365,5.575C209.899,151.297,213.684,159.758,213.684,169.1z"/>
<rect x="282.75" y="92.76" style="fill:#E8C778;" width="114.39" height="55.37"/>
<path d="M237.298,461.379c4.143,0,7.5-3.357,7.5-7.5s-3.357-7.5-7.5-7.5H112.756c-4.143,0-7.5,3.357-7.5,7.5s3.357,7.5,7.5,7.5
	H237.298z"/>
<path d="M431.777,462.246c-4.143,0-7.5,3.357-7.5,7.5v18.204H85.619V123.968V51.853c0-0.681-0.018-1.36-0.049-2.036
	c-0.01-0.224-0.03-0.447-0.044-0.671c-0.028-0.451-0.057-0.903-0.099-1.351c-0.024-0.262-0.057-0.521-0.086-0.782
	c-0.046-0.41-0.093-0.819-0.15-1.225c-0.038-0.272-0.083-0.543-0.126-0.814c-0.063-0.392-0.129-0.782-0.203-1.171
	c-0.052-0.275-0.108-0.549-0.165-0.823c-0.08-0.383-0.165-0.764-0.256-1.144c-0.065-0.271-0.131-0.542-0.201-0.811
	c-0.099-0.382-0.205-0.762-0.315-1.14c-0.076-0.26-0.15-0.521-0.23-0.78c-0.121-0.391-0.252-0.778-0.384-1.164
	c-0.083-0.241-0.162-0.483-0.249-0.723c-0.153-0.422-0.318-0.839-0.484-1.255c-0.079-0.198-0.153-0.399-0.235-0.596
	c-0.24-0.576-0.493-1.147-0.759-1.712c-0.016-0.034-0.03-0.07-0.046-0.104c-0.284-0.601-0.585-1.194-0.897-1.782
	c-0.094-0.177-0.196-0.35-0.293-0.526c-0.223-0.405-0.448-0.809-0.685-1.208c-0.13-0.219-0.268-0.433-0.402-0.65
	c-0.216-0.349-0.433-0.697-0.66-1.041c-0.152-0.23-0.309-0.457-0.466-0.684c-0.223-0.323-0.447-0.645-0.679-0.963
	c-0.169-0.231-0.341-0.459-0.514-0.687c-0.234-0.307-0.471-0.612-0.713-0.913c-0.183-0.227-0.367-0.453-0.555-0.677
	c-0.102-0.122-0.199-0.248-0.302-0.369h321.106c7.417,0,14.401,2.894,19.661,8.141c5.25,5.249,8.141,12.232,8.141,19.662v132.222
	c0,4.143,3.357,7.5,7.5,7.5s7.5-3.357,7.5-7.5V51.853c0-11.437-4.451-22.187-12.54-30.275c-8.1-8.079-18.847-12.528-30.264-12.528
	H42.817C19.208,9.05,0,28.251,0,51.853v72.115c0,4.143,3.357,7.5,7.5,7.5h40.619c4.143,0,7.5-3.357,7.5-7.5
	c0-4.143-3.357-7.5-7.5-7.5H15V51.853c0-15.33,12.479-27.803,27.817-27.803c7.417,0,14.402,2.894,19.662,8.141
	c5.249,5.248,8.14,12.232,8.14,19.662v72.115V495.45c0,4.143,3.357,7.5,7.5,7.5h353.658c4.143,0,7.5-3.357,7.5-7.5v-25.704
	C439.277,465.603,435.92,462.246,431.777,462.246z"/>
<path d="M511.795,270.085c-0.154-3.518-2.735-6.455-6.204-7.061c-25.513-4.452-46.603-23.434-53.731-48.357
	c-0.921-3.219-3.863-5.438-7.211-5.438h-122.38c-3.348,0-6.29,2.219-7.211,5.438c-1.712,5.987-4.238,11.627-7.429,16.81H112.756
	c-4.143,0-7.5,3.357-7.5,7.5s3.357,7.5,7.5,7.5h182.38c-9.361,8.442-21.03,14.318-33.809,16.548
	c-3.469,0.605-6.05,3.543-6.204,7.061c-0.136,3.115-0.205,6.192-0.205,9.146c0,8.048,0.469,16.017,1.376,23.88H112.756
	c-4.143,0-7.5,3.357-7.5,7.5c0,4.142,3.357,7.5,7.5,7.5h145.826c3.79,19.91,10.448,38.964,19.624,56.635h-165.45
	c-4.143,0-7.5,3.357-7.5,7.5s3.357,7.5,7.5,7.5h174.052c21.932,34.787,54.193,62.996,93.695,79.931
	c0.943,0.404,1.949,0.606,2.955,0.606c1.006,0,2.012-0.202,2.955-0.606C462.704,436.971,512,362.217,512,279.23
	C512,276.277,511.931,273.2,511.795,270.085z M383.458,454.593c-36.388-16.319-65.938-43.044-85.763-75.772
	c-0.164-0.319-0.35-0.623-0.556-0.913c-17.468-29.204-27.221-63.125-27.221-98.677c0-0.895,0.007-1.802,0.021-2.719
	c19.329-4.903,36.16-16.709,47.505-32.711c0.276-0.328,0.52-0.682,0.738-1.055c3.91-5.699,7.136-11.908,9.537-18.516H439.2
	c9.368,25.785,31.221,45.546,57.779,52.282c0.014,0.917,0.021,1.824,0.021,2.719C497,355.133,452.544,423.61,383.458,454.593z"/>
<path d="M436.717,302.76h-25.572v-25.572c0-4.143-3.357-7.5-7.5-7.5h-40.372c-4.143,0-7.5,3.357-7.5,7.5v25.572H330.2
	c-4.143,0-7.5,3.357-7.5,7.5v40.372c0,4.143,3.357,7.5,7.5,7.5h25.572v25.572c0,4.143,3.357,7.5,7.5,7.5h40.372
	c4.143,0,7.5-3.357,7.5-7.5v-25.572h25.572c4.143,0,7.5-3.357,7.5-7.5V310.26C444.217,306.117,440.859,302.76,436.717,302.76z
	 M429.217,343.132h-25.572c-4.142,0-7.5,3.357-7.5,7.5v25.572h-25.372v-25.572c0-4.143-3.357-7.5-7.5-7.5H337.7V317.76h25.572
	c4.143,0,7.5-3.357,7.5-7.5v-25.572h25.372v25.572c0,4.143,3.358,7.5,7.5,7.5h25.572v25.372H429.217z"/>
<path d="M105.256,120.448c0,26.378,14.161,51.053,36.95,64.391c11.359,6.664,24.374,10.187,37.637,10.187
	c1.658,0,3.312-0.055,4.959-0.164c11.531-0.765,22.737-4.191,32.672-10.018c22.795-13.343,36.956-38.018,36.956-64.395
	c0-41.127-33.46-74.587-74.587-74.587C138.716,45.861,105.256,79.321,105.256,120.448z M176.714,179.936
	c-0.16-0.008-0.32-0.014-0.479-0.024c-0.992-0.06-1.98-0.147-2.965-0.255c-0.187-0.021-0.374-0.043-0.561-0.065
	c-0.989-0.119-1.975-0.258-2.955-0.426c-0.135-0.023-0.27-0.05-0.405-0.074c-0.977-0.174-1.95-0.369-2.916-0.592
	c-0.066-0.015-0.133-0.028-0.199-0.044c-0.984-0.23-1.961-0.492-2.931-0.771c-0.172-0.05-0.345-0.098-0.517-0.149
	c-0.936-0.279-1.865-0.581-2.786-0.906c-0.179-0.063-0.358-0.129-0.537-0.194c-0.934-0.34-1.862-0.697-2.778-1.084
	c-0.104-0.044-0.207-0.092-0.311-0.137c-0.886-0.38-1.763-0.782-2.63-1.205c-0.08-0.039-0.161-0.076-0.241-0.115V169.1
	c0-7.841,3.51-15.204,9.4-20.16c0.076,0.051,0.157,0.093,0.234,0.143c0.462,0.3,0.932,0.585,1.408,0.859
	c0.149,0.085,0.297,0.172,0.447,0.255c0.562,0.31,1.132,0.605,1.711,0.879c0.121,0.057,0.245,0.108,0.367,0.164
	c0.484,0.221,0.973,0.428,1.467,0.623c0.178,0.07,0.356,0.141,0.535,0.208c0.593,0.221,1.191,0.428,1.798,0.612
	c0.121,0.037,0.244,0.067,0.366,0.102c0.514,0.149,1.032,0.283,1.555,0.405c0.197,0.046,0.394,0.091,0.592,0.134
	c0.621,0.132,1.245,0.251,1.877,0.345c0.104,0.015,0.209,0.024,0.313,0.039c0.554,0.076,1.112,0.136,1.673,0.183
	c0.207,0.017,0.415,0.033,0.624,0.046c0.6,0.038,1.203,0.062,1.809,0.066c0.056,0,0.111,0.006,0.167,0.006
	c0.055,0,0.109-0.006,0.164-0.006c0.607-0.003,1.211-0.028,1.812-0.066c0.205-0.013,0.41-0.028,0.614-0.045
	c0.581-0.048,1.16-0.109,1.735-0.189c0.085-0.012,0.17-0.02,0.255-0.032c0.634-0.094,1.26-0.214,1.884-0.346
	c0.189-0.04,0.378-0.083,0.566-0.127c0.559-0.13,1.114-0.273,1.663-0.433c0.084-0.024,0.169-0.044,0.253-0.07
	c0.615-0.186,1.22-0.396,1.82-0.62c0.174-0.065,0.347-0.133,0.52-0.201c0.521-0.205,1.036-0.422,1.544-0.655
	c0.095-0.044,0.192-0.083,0.287-0.127c0.576-0.271,1.141-0.565,1.699-0.873c0.169-0.093,0.336-0.189,0.503-0.285
	c0.46-0.264,0.913-0.54,1.36-0.829c0.089-0.058,0.183-0.107,0.272-0.166c0.578,0.486,1.137,0.999,1.674,1.537
	c4.976,4.975,7.716,11.59,7.716,18.626v4.795c-0.074,0.036-0.149,0.07-0.223,0.107c-0.88,0.43-1.77,0.838-2.669,1.223
	c-0.094,0.04-0.187,0.084-0.282,0.124c-0.924,0.39-1.859,0.751-2.801,1.093c-0.17,0.062-0.34,0.124-0.511,0.185
	c-0.927,0.327-1.863,0.632-2.805,0.913c-0.165,0.049-0.332,0.096-0.498,0.143c-0.976,0.281-1.958,0.545-2.948,0.776
	c-0.059,0.014-0.12,0.025-0.179,0.039c-0.972,0.224-1.952,0.42-2.936,0.596c-0.133,0.024-0.265,0.051-0.398,0.073
	c-0.981,0.168-1.968,0.307-2.958,0.426c-0.186,0.023-0.373,0.044-0.56,0.065c-0.985,0.109-1.974,0.196-2.966,0.256
	c-0.16,0.01-0.32,0.015-0.48,0.024c-1.04,0.055-2.083,0.09-3.129,0.09C178.797,180.025,177.754,179.99,176.714,179.936z
	 M164.039,123.199v-13.591c0-8.714,7.09-15.804,15.804-15.804s15.804,7.09,15.804,15.804v13.591c0,4.194-1.622,8.143-4.54,11.09
	l-0.087,0.087c-0.329,0.329-0.674,0.635-1.027,0.931c-0.053,0.045-0.103,0.095-0.157,0.139c-0.322,0.264-0.658,0.505-0.997,0.74
	c-0.087,0.061-0.169,0.129-0.258,0.188c-0.321,0.214-0.655,0.405-0.989,0.593c-0.113,0.064-0.221,0.137-0.336,0.198
	c-0.333,0.177-0.677,0.331-1.021,0.483c-0.122,0.054-0.24,0.118-0.364,0.169c-0.369,0.152-0.748,0.28-1.128,0.403
	c-0.105,0.034-0.206,0.078-0.311,0.11c-0.446,0.134-0.899,0.244-1.358,0.339c-0.043,0.009-0.085,0.023-0.128,0.032
	c-1.011,0.2-2.05,0.303-3.104,0.303c-2.68,0-5.255-0.665-7.545-1.912c-1.341-0.731-2.586-1.66-3.694-2.777
	c-0.001-0.001-0.002-0.002-0.003-0.003C165.66,131.337,164.039,127.391,164.039,123.199z M239.43,120.448
	c0,16.458-6.903,32.086-18.607,43.224c-1.171-8.985-5.233-17.292-11.746-23.806c-0.691-0.69-1.405-1.353-2.14-1.99
	c2.42-4.455,3.71-9.468,3.71-14.677v-13.591c0-16.985-13.818-30.804-30.804-30.804c-16.985,0-30.804,13.818-30.804,30.804v13.591
	c0,5.212,1.292,10.228,3.715,14.686c-7.588,6.594-12.56,15.773-13.891,25.789c-11.703-11.136-18.607-26.767-18.607-43.226
	c0-32.856,26.73-59.587,59.587-59.587C212.699,60.861,239.43,87.592,239.43,120.448z"/>
<path d="M282.748,85.256c-4.142,0-7.5,3.357-7.5,7.5v55.375c0,4.143,3.358,7.5,7.5,7.5h114.393c4.143,0,7.5-3.357,7.5-7.5V92.756
	c0-4.143-3.357-7.5-7.5-7.5H282.748z M389.641,140.631h-99.393v-40.375h99.393V140.631z"/>
<g>
</g>
<g>
</g>
<g>
</g>
<g>
</g>
<g>
</g>
<g>
</g>
<g>
</g>
<g>
</g>
<g>
</g>
<g>
</g>
<g>
</g>
<g>
</g>
<g>
</g>
<g>
</g>
<g>
</g>
</svg>
