<svg height="512pt" viewBox="-94 0 512 512.00409" width="512pt" xmlns="http://www.w3.org/2000/svg"><path d="m204.808594 51.199219c0 23.566406-19.101563 42.667969-42.664063 42.667969-4.335937-.015626-8.644531-.644532-12.800781-1.878907-17.785156-5.632812-29.867188-22.132812-29.867188-40.789062 0-18.652344 12.082032-35.15625 29.867188-40.789063 4.15625-1.230468 8.464844-1.863281 12.800781-1.875 11.316407 0 22.167969 4.492188 30.167969 12.496094 8.003906 8 12.496094 18.851562 12.496094 30.167969zm0 0" fill="#cab596"/><path d="m179.210938 51.199219c0-22.527344-13.371094-40.789063-29.867188-40.789063s-29.867188 18.261719-29.867188 40.789063c0 22.527343 13.371094 40.789062 29.867188 40.789062s29.867188-18.261719 29.867188-40.789062zm0 0" fill="#ffe4be"/><path d="m217.867188 264.277344 47.359374-60.929688-41.898437-36.605468-1.453125 1.621093v79.101563c0 4.714844-3.820312 8.535156-8.53125 8.535156h-102.402344c-4.710937 0-8.53125-3.820312-8.53125-8.535156v-79.101563l-1.449218-1.621093-41.898438 36.605468 37.757812 48.589844-34.628906 24.824219-49.125-63.148438c-6.957031-8.886719-5.757812-21.660156 2.730469-29.097656l68.265625-59.734375c3.828125-3.417969 8.777344-5.3125 13.910156-5.316406h28.929688c6 .007812 11.550781 3.1875 14.589844 8.363281l20.652343 34.5625 20.648438-34.5625c3.039062-5.175781 8.589843-8.355469 14.59375-8.363281h28.925781c5.128906-.003906 10.082031 1.878906 13.910156 5.292968l68.265625 59.734376c8.488281 7.4375 9.6875 20.210937 2.730469 29.097656l-59.730469 76.800781zm0 0" fill="#00c6db"/><path d="m96.589844 251.632812 9.832031 12.644532c3.476563 4.453125 5.039063 10.109375 4.332031 15.714844-.703125 5.605468-3.617187 10.699218-8.089844 14.152343-3.707031 2.953125-8.3125 4.550781-13.054687 4.523438-6.585937.011719-12.804687-3.046875-16.808594-8.277344l-10.839843-13.910156zm0 0" fill="#ffe4be"/><path d="m222.941406 482.132812c.011719 6.035157-2.535156 11.789063-7.007812 15.839844-4.46875 4.050782-10.445313 6.019532-16.449219 5.417969-11.179687-1.511719-19.445313-11.171875-19.207031-22.453125v-131.070312c-.03125-4.777344-2.054688-9.328126-5.578125-12.554688-3.527344-3.226562-8.238281-4.835938-13-4.445312-9.011719 1.105468-15.726563 8.84375-15.554688 17.921874v130.125c.234375 11.277344-8.03125 20.9375-19.210937 22.449219-5.996094.601563-11.96875-1.363281-16.4375-5.410156-4.472656-4.042969-7.019532-9.792969-7.019532-15.820313v-192h119.464844zm0 0" fill="#00a499"/><path d="m222.941406 290.132812v192c.007813 6.035157-2.539062 11.785157-7.011718 15.835938-4.472657 4.050781-10.449219 6.015625-16.453126 5.414062-3.828124-.410156-7.464843-1.890624-10.496093-4.269531 5.285156-4.042969 8.375-10.324219 8.363281-16.980469v-192zm0 0" fill="#007b6f"/><path d="m311.21875 213.589844-59.730469 76.800781-15.957031-12.375 50.089844-64.425781c6.953125-8.886719 5.757812-21.660156-2.730469-29.097656l-68.265625-59.734376c-3.832031-3.414062-8.78125-5.296874-13.910156-5.292968h25.597656c5.128906-.003906 10.082031 1.878906 13.910156 5.292968l68.265625 59.734376c8.488281 7.4375 9.6875 20.210937 2.730469 29.097656zm0 0" fill="#00939f"/><path d="m221.875 187.820312v59.644532c0 4.714844-3.820312 8.535156-8.53125 8.535156h-25.601562c4.714843 0 8.535156-3.820312 8.535156-8.535156v-61.898438c0-3.234375 1.824218-6.1875 4.714844-7.632812 2.890624-1.445313 6.351562-1.132813 8.9375.804687zm0 0" fill="#00939f"/><path d="m262.324219 276.480469-10.835938 13.910156c-4.007812 5.230469-10.222656 8.289063-16.8125 8.277344-4.738281.027343-9.347656-1.570313-13.054687-4.523438-2.539063-1.945312-4.582032-4.460937-5.972656-7.339843-3.699219-7.300782-2.835938-16.085938 2.21875-22.527344l9.8125-12.628906 18.175781 13.054687zm0 0" fill="#cab596"/><path d="m245.855469 264.703125-10.835938 13.996094c-4.007812 5.230469-10.222656 8.289062-16.8125 8.277343-.851562 0-1.707031-.085937-2.558593-.171874-3.699219-7.300782-2.835938-16.085938 2.21875-22.527344l9.8125-12.628906zm0 0" fill="#ffe4be"/><path d="m162.144531 102.398438c28.277344 0 51.199219-22.921876 51.199219-51.199219 0-28.277344-22.921875-51.199219-51.199219-51.199219-28.277343 0-51.203125 22.921875-51.203125 51.199219.03125 28.265625 22.9375 51.171875 51.203125 51.199219zm0-85.332032c18.851563 0 34.132813 15.28125 34.132813 34.132813 0 18.851562-15.28125 34.132812-34.132813 34.132812-18.851562 0-34.132812-15.28125-34.132812-34.132812 0-18.851563 15.28125-34.132813 34.132812-34.132813zm0 0"/><path d="m66.023438 295.570312c5.601562 7.363282 14.335937 11.671876 23.585937 11.628907 1.429687-.015625 2.855469-.132813 4.265625-.347657v175.28125c0 8.457032 3.582031 16.515626 9.859375 22.179688s14.660156 8.402344 23.074219 7.535156c15.484375-2.03125 27-15.328125 26.800781-30.941406v-131.039062c0-4.714844 3.820313-8.535157 8.535156-8.535157 4.710938 0 8.53125 3.820313 8.53125 8.535157v131.039062c-.195312 15.613281 11.320313 28.910156 26.804688 30.941406 1 .101563 2.003906.152344 3.011719.152344 7.929687.011719 15.539062-3.128906 21.152343-8.730469 5.613281-5.601562 8.765625-13.207031 8.765625-21.136719v-175.28125c1.410156.214844 2.835938.332032 4.265625.347657 9.226563.046875 17.945313-4.238281 23.542969-11.570313l59.734375-76.800781c9.753906-12.453125 8.070313-30.355469-3.832031-40.773437l-68.207032-59.671876c-5.441406-4.84375-12.484374-7.496093-19.769531-7.449218h-28.757812c-8.996094.03125-17.316407 4.785156-21.914063 12.519531l-13.328125 22.296875-13.304687-22.265625c-4.59375-7.753906-12.925782-12.519531-21.9375-12.550781h-28.929688c-7.199218-.015625-14.152344 2.621094-19.53125 7.40625l-68.269531 59.734375c-11.90625 10.402343-13.589844 28.304687-3.832031 40.746093zm50.5-31.121093h91.238281c-2.492188 5.171875-3.425781 10.953125-2.6875 16.648437 0 .167969.085937.332032.109375.503906h-86.082032c0-.171874.09375-.335937.109376-.503906.738281-5.695312-.195313-11.476562-2.6875-16.648437zm96.820312 217.683593c0 3.632813-1.542969 7.09375-4.242188 9.523438-2.699218 2.425781-6.304687 3.59375-9.914062 3.207031-6.785156-1.105469-11.6875-7.085937-11.445312-13.957031v-131.039062c0-14.140626-11.460938-25.601563-25.597657-25.601563-14.140625 0-25.601562 11.460937-25.601562 25.601563v131.039062c.246093 6.871094-4.65625 12.851562-11.441407 13.957031-3.613281.386719-7.21875-.78125-9.917968-3.207031-2.699219-2.429688-4.242188-5.890625-4.242188-9.523438v-183.464843h102.402344zm-191.921875-291.214843 68.332031-59.792969c2.3125-2.050781 5.300782-3.164062 8.390625-3.125h28.757813c2.992187.03125 5.75 1.625 7.269531 4.207031l20.648437 34.558594c1.65625 2.417969 4.394532 3.859375 7.324219 3.859375 2.925781 0 5.664063-1.441406 7.320313-3.859375l20.675781-34.59375c1.511719-2.570313 4.261719-4.15625 7.246094-4.171875h28.925781c3.0625 0 6.015625 1.132812 8.289062 3.183594l68.265626 59.734375c5.105468 4.421875 5.855468 12.066406 1.707031 17.398437l-.042969.050782-59.777344 76.851562c-3.191406 4.011719-8.472656 5.730469-13.414062 4.367188-4.941406-1.363282-8.597656-5.542969-9.285156-10.621094-.445313-3.363282.476562-6.765625 2.5625-9.441406l47.359374-60.917969c2.773438-3.570313 2.28125-8.691407-1.128906-11.664063l-41.898437-36.609375c-3.515625-3.054687-8.832031-2.722656-11.945313.742188l-1.449218 1.613281c-1.410157 1.554688-2.199219 3.574219-2.210938 5.675781v79.019531l-102.402344-.085937v-78.933594c0-2.101562-.773437-4.128906-2.175781-5.691406l-1.449219-1.613281c-3.113281-3.46875-8.429687-3.796875-11.945312-.742188l-41.898438 36.605469c-3.410156 2.976563-3.902344 8.09375-1.128906 11.667969l47.371094 60.925781c2.097656 2.683594 3.03125 6.097656 2.589844 9.476563-.445313 3.378906-2.226563 6.4375-4.945313 8.488281-2.203125 1.746093-4.9375 2.683593-7.75 2.652343-3.953125.019532-7.6875-1.828124-10.070313-4.984374l-59.773437-76.851563c-4.15625-5.3125-3.429687-12.949219 1.65625-17.378906zm208.988281 43.320312v-49.976562l23.132813 20.214843zm-136.535156-49.976562v49.976562l-23.132812-29.761719zm0 0"/></svg>