<svg width="90" height="90" viewBox="0 0 90 90" fill="none" xmlns="http://www.w3.org/2000/svg">
<path d="M79.4531 7.03125H75.2344V0H68.2031V7.03125H21.7969V0H14.7656V7.03125H10.5469C4.73099 7.03125 0 11.7622 0 17.5781V79.4531C0 85.269 4.73099 90 10.5469 90H79.4531C85.269 90 90 85.269 90 79.4531V17.5781C90 11.7622 85.269 7.03125 79.4531 7.03125ZM10.5469 14.0625H14.7656V21.0938H21.7969V14.0625H68.2031V21.0938H75.2344V14.0625H79.4531C81.3915 14.0625 82.9688 15.6397 82.9688 17.5781V26.0156H7.03125V17.5781C7.03125 15.6397 8.60847 14.0625 10.5469 14.0625ZM79.4531 82.9688H10.5469C8.60847 82.9688 7.03125 81.3915 7.03125 79.4531V33.0469H82.9688V79.4531C82.9688 81.3915 81.3915 82.9688 79.4531 82.9688ZM12.832 59.0625H32.168V39.7266H12.832V59.0625ZM19.8633 46.7578H25.1367V52.0312H19.8633V46.7578ZM70.8398 51.1523H63.8086V44.1211H70.8398V51.1523ZM57.832 75.7617H77.168V56.4258H57.832V75.7617ZM64.8633 63.457H70.1367V68.7305H64.8633V63.457ZM37.6172 44.1211H44.6484V51.1523H37.6172V44.1211ZM57.832 51.1523H50.8008V44.1211H57.832V51.1523Z" fill="url(#paint0_linear)"/>
<defs>
<linearGradient id="paint0_linear" x1="45" y1="0" x2="45" y2="90" gradientUnits="userSpaceOnUse">
<stop stop-color="#2AF598"/>
<stop offset="1" stop-color="#009EFD"/>
</linearGradient>
</defs>
</svg>
