<svg width="28" height="25" viewBox="0 0 28 25" fill="none" xmlns="http://www.w3.org/2000/svg">
<path d="M13.08 0.0139618C11.5412 0.121202 10.1417 0.49108 8.76356 1.15608C5.32096 2.82376 2.92949 6.07848 2.38797 9.83188C2.33981 10.1589 2.30229 10.5235 2.30229 10.6416C2.30229 10.8402 2.28073 10.8668 1.99653 11.0546C1.82489 11.1672 1.53005 11.4192 1.33713 11.6124C0.302245 12.6635 -0.196435 14.2506 0.0715252 15.65C0.441405 17.5694 1.94808 19.0495 3.8784 19.3872C4.62908 19.5213 5.06336 19.4353 5.396 19.0976C5.56232 18.9207 5.63204 18.7972 5.67488 18.5774C5.71772 18.3792 5.73396 17.1886 5.72304 14.7274C5.70708 11.1722 5.70708 11.1616 5.58892 10.9418C5.43352 10.6523 5.144 10.4003 4.88108 10.3306C4.67192 10.2768 4.67192 10.2768 4.6988 10.0464C4.75256 9.64428 5.03648 8.60408 5.22968 8.1054C6.18952 5.68704 8.14141 3.76736 10.5757 2.85596C12.9028 1.9874 15.5678 2.13216 17.8039 3.25804C18.3723 3.54224 19.2465 4.13752 19.7718 4.604C21.2143 5.88024 22.292 7.75148 22.646 9.58016C22.6941 9.83216 22.7479 10.0895 22.7585 10.1539C22.7801 10.2558 22.7532 10.2827 22.56 10.3362C22.217 10.4274 21.8468 10.8242 21.7665 11.1941C21.7236 11.4032 21.7127 12.481 21.7236 15.0494C21.7396 19.0173 21.7183 18.7706 22.1151 19.1192L22.308 19.2855L22.1042 19.677C21.8684 20.1222 21.3053 20.744 20.8226 21.0873C20.383 21.3984 19.4929 21.822 18.9136 21.9881C18.3345 22.1544 17.455 22.2882 16.9242 22.2882H16.5221L16.3504 22.02C16.1038 21.6339 15.7445 21.3337 15.4012 21.2371C15.1708 21.1674 14.8491 21.1568 13.605 21.1727L12.0874 21.189L11.7817 21.339C11.208 21.6232 10.8809 22.1757 10.8809 22.8779C10.8809 23.5804 11.208 24.1326 11.7817 24.4168L12.0874 24.5669L13.605 24.5828C14.8491 24.5991 15.1708 24.5882 15.4012 24.5184C15.7389 24.4218 16.1038 24.1217 16.3448 23.7409L16.5165 23.4782L17.0367 23.4407C19.1065 23.3066 20.6938 22.7598 21.9485 21.7464C22.6348 21.1993 23.2569 20.3414 23.4767 19.6498C23.5358 19.4675 23.5624 19.4462 23.8466 19.3872C24.9406 19.162 26.0183 18.422 26.6617 17.4462C27.4984 16.1915 27.6697 14.5829 27.1282 13.1885C26.8118 12.3628 26.1362 11.5049 25.4552 11.0544C25.1604 10.8614 25.1441 10.8399 25.1441 10.636C25.1441 10.2874 24.9887 9.32228 24.8224 8.66288C24.1414 5.92812 22.404 3.4938 19.9966 1.89584C18.9724 1.21488 17.5032 0.576762 16.3504 0.308522C15.3909 0.0890024 13.9433 -0.0451182 13.08 0.0139618Z" fill="#00939F"/>
</svg>
