<svg width="80" height="80" viewBox="0 0 80 80" fill="none" xmlns="http://www.w3.org/2000/svg">
<path d="M12.2063 8.10187V19.37H1.17188V8.10187C1.17188 5.05578 3.64172 2.58594 6.69016 2.58594C8.21313 2.58594 9.59219 3.20453 10.5909 4.20109C11.5898 5.19984 12.2063 6.57891 12.2063 8.10187Z" fill="#BCBCCE"/>
<path d="M12.2063 8.10188V77.4141H67.4654V19.37V8.10188C67.4654 6.57891 66.8491 5.19984 65.8502 4.20109C64.8513 3.20453 63.4724 2.58594 61.9493 2.58594H6.69022C8.21318 2.58594 9.59225 3.20453 10.5912 4.20109C11.5899 5.19984 12.2063 6.57891 12.2063 8.10188Z" fill="#E7E7F2"/>
<path d="M65.8501 4.20109C64.8512 3.20469 63.4723 2.58594 61.9492 2.58594H57.9604C59.4834 2.58594 60.8625 3.20453 61.8612 4.20109C62.8601 5.19984 63.4764 6.57891 63.4764 8.10188V19.37V77.4141H67.4651V19.37V8.10188C67.4651 6.57891 66.8489 5.19984 65.8501 4.20109Z" fill="#BCBCCE"/>
<path d="M69.4764 33.8639H50.3546C49.123 38.1708 45.5125 41.4705 41.0338 42.252C41.0138 42.7087 41.0028 43.168 41.0028 43.6297C41.0028 56.4962 48.7942 67.542 59.9156 72.3095C71.0369 67.542 78.8282 56.4964 78.8282 43.6297C78.8282 43.168 78.8172 42.7087 78.7972 42.252C74.3185 41.4705 70.708 38.1708 69.4764 33.8639Z" fill="#50D399"/>
<path d="M78.7972 42.252C74.3184 41.4705 70.708 38.1708 69.4764 33.8639H67.327C68.2817 38.1708 71.0806 41.4705 74.5525 42.252C74.568 42.7089 74.5766 43.168 74.5766 43.6297C74.5766 56.4964 68.5367 67.542 59.9155 72.3097C71.0369 67.542 78.8281 56.4964 78.8281 43.6297C78.8281 43.168 78.8172 42.7089 78.7972 42.252Z" fill="#32A873"/>
<path d="M51.5938 48.4781H56.7615V43.3106H63.0694V48.4781H68.2371V54.7862H63.0694V59.9537H56.7615V54.7862H51.5938V48.4781Z" fill="#E36F91"/>
<path d="M38.5827 18.82C38.5827 22.68 36.4954 26.0517 33.3882 27.8705C31.8366 28.7805 30.0291 29.3009 28.1004 29.3009C26.1718 29.3009 24.3641 28.7805 22.8126 27.8705C19.7054 26.0517 17.618 22.6801 17.618 18.82C17.618 13.03 22.3116 8.33765 28.1004 8.33765C33.8891 8.33765 38.5827 13.0298 38.5827 18.82Z" fill="#7EBFE7"/>
<path d="M31.7417 17.1264V19.25C31.7417 20.2491 31.34 21.1538 30.6892 21.8114L30.6756 21.825C30.0168 22.4839 29.1064 22.8913 28.1006 22.8913C27.0879 22.8913 26.1731 22.4781 25.5119 21.8114C24.8609 21.1538 24.4594 20.2491 24.4594 19.25V17.1264C24.4594 15.1158 26.09 13.4852 28.1006 13.4852C30.1111 13.4852 31.7417 15.1158 31.7417 17.1264Z" fill="#FFD2C0"/>
<path d="M33.3881 26.4219V27.8705C31.8366 28.7805 30.0291 29.3009 28.1003 29.3009C26.1717 29.3009 24.3641 28.7805 22.8125 27.8705V26.4219C22.8125 24.4417 23.9006 22.7176 25.512 21.8117C26.173 22.4783 27.0872 22.8915 28.1002 22.8915C29.1063 22.8915 30.0162 22.4839 30.6758 21.8256L30.6883 21.8117C31.1127 22.0483 31.4995 22.3433 31.8391 22.6828C32.7967 23.6401 33.3881 24.9622 33.3881 26.4219Z" fill="#E36F91"/>
<path d="M62.0531 14.4937H44.1797V23.1453H62.0531V14.4937Z" fill="#E8C778"/>
<path d="M37.0777 72.0905C37.7251 72.0905 38.2496 71.5659 38.2496 70.9186C38.2496 70.2712 37.7251 69.7467 37.0777 69.7467H17.618C16.9707 69.7467 16.4462 70.2712 16.4462 70.9186C16.4462 71.5659 16.9707 72.0905 17.618 72.0905H37.0777Z" fill="black"/>
<path d="M67.4652 72.226C66.8178 72.226 66.2933 72.7505 66.2933 73.3978V76.2422H13.378V19.37V8.10203C13.378 7.99563 13.3752 7.88953 13.3703 7.78391C13.3687 7.74891 13.3656 7.71406 13.3634 7.67906C13.3591 7.60859 13.3545 7.53797 13.348 7.46797C13.3442 7.42703 13.3391 7.38656 13.3345 7.34578C13.3273 7.28172 13.32 7.21781 13.3111 7.15438C13.3052 7.11188 13.2981 7.06953 13.2914 7.02719C13.2816 6.96594 13.2712 6.905 13.2597 6.84422C13.2516 6.80125 13.2428 6.75844 13.2339 6.71563C13.2214 6.65578 13.2081 6.59625 13.1939 6.53688C13.1838 6.49453 13.1734 6.45219 13.1625 6.41016C13.147 6.35047 13.1305 6.29109 13.1133 6.23203C13.1014 6.19141 13.0898 6.15063 13.0773 6.11016C13.0584 6.04906 13.038 5.9886 13.0173 5.92828C13.0044 5.89063 12.992 5.85281 12.9784 5.81531C12.9545 5.74938 12.9288 5.68422 12.9028 5.61922C12.8905 5.58828 12.8789 5.55688 12.8661 5.52609C12.8286 5.43609 12.7891 5.34688 12.7475 5.25859C12.745 5.25328 12.7428 5.24766 12.7403 5.24234C12.6959 5.14844 12.6489 5.05578 12.6002 4.96391C12.5855 4.93625 12.5695 4.90922 12.5544 4.88172C12.5195 4.81844 12.4844 4.75531 12.4473 4.69297C12.427 4.65875 12.4055 4.62531 12.3845 4.59141C12.3508 4.53688 12.3169 4.4825 12.2814 4.42875C12.2577 4.39281 12.2331 4.35734 12.2086 4.32188C12.1737 4.27141 12.1388 4.22109 12.1025 4.17141C12.0761 4.13531 12.0492 4.09969 12.0222 4.06406C11.9856 4.01609 11.9486 3.96844 11.9108 3.92141C11.8822 3.88594 11.8534 3.85063 11.8241 3.81563C11.8081 3.79656 11.793 3.77688 11.7769 3.75797H61.9497C63.1086 3.75797 64.1998 4.21016 65.0217 5.03C65.842 5.85016 66.2937 6.94125 66.2937 8.10219V28.7619C66.2937 29.4092 66.8183 29.9338 67.4656 29.9338C68.113 29.9338 68.6375 29.4092 68.6375 28.7619V8.10203C68.6375 6.315 67.942 4.63531 66.6781 3.37156C65.4125 2.10922 63.7333 1.41406 61.9494 1.41406H6.69016C3.00125 1.41406 0 4.41422 0 8.10203V19.37C0 20.0173 0.524531 20.5419 1.17188 20.5419H7.51859C8.16594 20.5419 8.69047 20.0173 8.69047 19.37C8.69047 18.7227 8.16594 18.1981 7.51859 18.1981H2.34375V8.10203C2.34375 5.70672 4.29359 3.75781 6.69016 3.75781C7.84906 3.75781 8.94047 4.21 9.76234 5.02984C10.5825 5.84984 11.0342 6.94109 11.0342 8.10203V19.37V77.4141C11.0342 78.0614 11.5588 78.586 12.2061 78.586H67.4652C68.1125 78.586 68.637 78.0614 68.637 77.4141V73.3978C68.637 72.7505 68.1125 72.226 67.4652 72.226Z" fill="black"/>
<path d="M79.9679 42.2008C79.9438 41.6511 79.5405 41.1922 78.9985 41.0975C75.0121 40.4019 71.7168 37.4359 70.603 33.5417C70.4591 33.0387 69.9994 32.692 69.4763 32.692H50.3544C49.8313 32.692 49.3716 33.0387 49.2277 33.5417C48.9602 34.4772 48.5655 35.3584 48.0669 36.1683H17.618C16.9707 36.1683 16.4462 36.6928 16.4462 37.3401C16.4462 37.9875 16.9707 38.512 17.618 38.512H46.1149C44.6523 39.8311 42.829 40.7492 40.8323 41.0976C40.2902 41.1922 39.8869 41.6512 39.8629 42.2009C39.8416 42.6876 39.8309 43.1684 39.8309 43.63C39.8309 44.8875 39.9041 46.1326 40.0459 47.3612H17.618C16.9707 47.3612 16.4462 47.8858 16.4462 48.5331C16.4462 49.1803 16.9707 49.705 17.618 49.705H40.4034C40.9955 52.8159 42.0359 55.7931 43.4696 58.5542H17.618C16.9707 58.5542 16.4462 59.0787 16.4462 59.7261C16.4462 60.3734 16.9707 60.898 17.618 60.898H44.8137C48.2405 66.3334 53.2813 70.7411 59.4535 73.3872C59.6009 73.4503 59.758 73.4819 59.9152 73.4819C60.0724 73.4819 60.2296 73.4503 60.3769 73.3872C72.2974 68.2767 79.9999 56.5964 79.9999 43.6297C79.9999 43.1683 79.9891 42.6875 79.9679 42.2008ZM59.9152 71.0301C54.2296 68.4803 49.6124 64.3045 46.5148 59.1908C46.4891 59.1409 46.4601 59.0934 46.4279 59.0481C43.6985 54.485 42.1746 49.1848 42.1746 43.6298C42.1746 43.49 42.1757 43.3483 42.1779 43.205C45.198 42.4389 47.8279 40.5942 49.6005 38.0939C49.6437 38.0426 49.6818 37.9873 49.7159 37.929C50.3268 37.0386 50.8309 36.0684 51.206 35.0359H68.6249C70.0887 39.0648 73.5032 42.1525 77.6529 43.205C77.6551 43.3483 77.6562 43.49 77.6562 43.6298C77.6562 55.4895 70.7099 66.189 59.9152 71.0301Z" fill="black"/>
<path d="M68.2371 47.3062H64.2415V43.3106C64.2415 42.6633 63.7169 42.1387 63.0696 42.1387H56.7615C56.1141 42.1387 55.5896 42.6633 55.5896 43.3106V47.3062H51.5938C50.9465 47.3062 50.4219 47.8308 50.4219 48.4781V54.7862C50.4219 55.4336 50.9465 55.9581 51.5938 55.9581H55.5894V59.9537C55.5894 60.6011 56.114 61.1256 56.7613 61.1256H63.0694C63.7168 61.1256 64.2413 60.6011 64.2413 59.9537V55.9581H68.2369C68.8843 55.9581 69.4088 55.4336 69.4088 54.7862V48.4781C69.409 47.8308 68.8843 47.3062 68.2371 47.3062ZM67.0652 53.6144H63.0696C62.4224 53.6144 61.8977 54.1389 61.8977 54.7862V58.7819H57.9333V54.7862C57.9333 54.1389 57.4088 53.6144 56.7615 53.6144H52.7657V49.65H56.7613C57.4087 49.65 57.9332 49.1255 57.9332 48.4781V44.4825H61.8976V48.4781C61.8976 49.1255 62.4222 49.65 63.0694 49.65H67.0651V53.6144H67.0652Z" fill="black"/>
<path d="M16.4462 18.82C16.4462 22.9415 18.6588 26.797 22.2196 28.8811C23.9944 29.9223 26.028 30.4728 28.1004 30.4728C28.3594 30.4728 28.6179 30.4642 28.8752 30.4472C30.6769 30.3276 32.4279 29.7923 33.9802 28.8819C37.5419 26.797 39.7546 22.9415 39.7546 18.8201C39.7546 12.394 34.5265 7.16592 28.1004 7.16592C21.6743 7.16577 16.4462 12.3939 16.4462 18.82ZM27.6115 28.115C27.5865 28.1137 27.5615 28.1128 27.5366 28.1112C27.3816 28.1019 27.2273 28.0883 27.0734 28.0714C27.0441 28.0681 27.0149 28.0647 26.9857 28.0612C26.8312 28.0426 26.6771 28.0209 26.524 27.9947C26.5029 27.9911 26.4818 27.9869 26.4607 27.9831C26.308 27.9559 26.156 27.9255 26.0051 27.8906C25.9948 27.8883 25.9843 27.8862 25.974 27.8837C25.8202 27.8478 25.6676 27.8069 25.516 27.7633C25.4891 27.7555 25.4621 27.748 25.4352 27.74C25.289 27.6964 25.1438 27.6492 24.9999 27.5984C24.9719 27.5886 24.944 27.5783 24.916 27.5681C24.7701 27.515 24.6251 27.4592 24.4819 27.3987C24.4657 27.3919 24.4496 27.3844 24.4334 27.3773C24.2949 27.318 24.1579 27.2551 24.0224 27.189C24.0099 27.183 23.9973 27.1772 23.9848 27.1711V26.4219C23.9848 25.1967 24.5332 24.0462 25.4535 23.2719C25.4654 23.2798 25.478 23.2864 25.4901 23.2942C25.5623 23.3411 25.6357 23.3856 25.7101 23.4284C25.7334 23.4417 25.7565 23.4553 25.7799 23.4683C25.8677 23.5167 25.9568 23.5628 26.0473 23.6056C26.0662 23.6145 26.0855 23.6225 26.1046 23.6312C26.1802 23.6658 26.2566 23.6981 26.3338 23.7286C26.3616 23.7395 26.3894 23.7506 26.4174 23.7611C26.5101 23.7956 26.6035 23.828 26.6984 23.8567C26.7173 23.8625 26.7365 23.8672 26.7555 23.8726C26.8359 23.8959 26.9168 23.9169 26.9985 23.9359C27.0293 23.9431 27.0601 23.9501 27.091 23.9569C27.188 23.9775 27.2855 23.9961 27.3843 24.0108C27.4005 24.0131 27.4169 24.0145 27.4332 24.0169C27.5198 24.0287 27.6069 24.0381 27.6946 24.0455C27.7269 24.0481 27.7594 24.0506 27.7921 24.0526C27.8859 24.0586 27.9801 24.0623 28.0748 24.063C28.0835 24.063 28.0921 24.0639 28.1009 24.0639C28.1094 24.0639 28.1179 24.063 28.1265 24.063C28.2213 24.0625 28.3157 24.0586 28.4096 24.0526C28.4416 24.0506 28.4737 24.0483 28.5055 24.0456C28.5963 24.0381 28.6868 24.0286 28.7766 24.0161C28.7899 24.0142 28.8032 24.013 28.8165 24.0111C28.9155 23.9964 29.0134 23.9776 29.1109 23.957C29.1404 23.9508 29.1699 23.944 29.1993 23.9372C29.2866 23.9169 29.3734 23.8945 29.4591 23.8695C29.4723 23.8658 29.4855 23.8626 29.4987 23.8586C29.5948 23.8295 29.6893 23.7967 29.783 23.7617C29.8102 23.7515 29.8373 23.7409 29.8643 23.7303C29.9457 23.6983 30.0262 23.6644 30.1055 23.628C30.1204 23.6211 30.1355 23.615 30.1504 23.6081C30.2404 23.5658 30.3287 23.5198 30.4159 23.4717C30.4423 23.4572 30.4684 23.4422 30.4944 23.4272C30.5663 23.3859 30.6371 23.3428 30.7069 23.2976C30.7209 23.2886 30.7355 23.2809 30.7494 23.2717C30.8398 23.3476 30.9271 23.4278 31.011 23.5119C31.7885 24.2892 32.2166 25.3228 32.2166 26.4222V27.1714C32.2051 27.177 32.1934 27.1823 32.1818 27.1881C32.0443 27.2553 31.9052 27.319 31.7648 27.3792C31.7501 27.3855 31.7355 27.3923 31.7207 27.3986C31.5763 27.4595 31.4302 27.5159 31.283 27.5694C31.2565 27.579 31.2299 27.5887 31.2032 27.5983C31.0584 27.6494 30.9121 27.697 30.7649 27.7409C30.7391 27.7486 30.713 27.7559 30.6871 27.7633C30.5346 27.8072 30.3812 27.8484 30.2265 27.8845C30.2173 27.8867 30.2077 27.8884 30.1985 27.8906C30.0466 27.9256 29.8935 27.9562 29.7398 27.9837C29.719 27.9875 29.6984 27.9917 29.6776 27.9951C29.5243 28.0214 29.3701 28.0431 29.2154 28.0617C29.1863 28.0653 29.1571 28.0686 29.1279 28.0719C28.974 28.0889 28.8194 28.1025 28.6644 28.1119C28.6394 28.1134 28.6144 28.1142 28.5894 28.1156C28.4269 28.1242 28.264 28.1297 28.1005 28.1297C27.9369 28.1289 27.774 28.1234 27.6115 28.115ZM25.631 19.2498V17.1262C25.631 15.7647 26.7388 14.6569 28.1004 14.6569C29.4619 14.6569 30.5698 15.7647 30.5698 17.1262V19.2498C30.5698 19.9051 30.3163 20.5222 29.8604 20.9826L29.8468 20.9962C29.7954 21.0476 29.7415 21.0955 29.6863 21.1417C29.678 21.1487 29.6702 21.1565 29.6618 21.1634C29.6115 21.2047 29.559 21.2423 29.506 21.279C29.4924 21.2886 29.4796 21.2992 29.4657 21.3084C29.4155 21.3419 29.3634 21.3717 29.3112 21.4011C29.2935 21.4111 29.2766 21.4225 29.2587 21.432C29.2066 21.4597 29.1529 21.4837 29.0991 21.5075C29.0801 21.5159 29.0616 21.5259 29.0423 21.5339C28.9846 21.5576 28.9254 21.5776 28.866 21.5969C28.8496 21.6022 28.8338 21.609 28.8174 21.614C28.7477 21.635 28.6769 21.6522 28.6052 21.667C28.5985 21.6684 28.5919 21.6706 28.5852 21.672C28.4273 21.7033 28.2649 21.7194 28.1002 21.7194C27.6815 21.7194 27.2791 21.6155 26.9213 21.4206C26.7118 21.3064 26.5173 21.1612 26.3441 20.9867C26.344 20.9865 26.3438 20.9864 26.3437 20.9862C25.8843 20.5214 25.631 19.9048 25.631 19.2498ZM37.4109 18.82C37.4109 21.3915 36.3323 23.8334 34.5035 25.5737C34.3205 24.1698 33.6859 22.8719 32.6682 21.854C32.5602 21.7462 32.4487 21.6426 32.3338 21.5431C32.7119 20.847 32.9135 20.0637 32.9135 19.2498V17.1262C32.9135 14.4723 30.7544 12.3131 28.1004 12.3131C25.4465 12.3131 23.2873 14.4722 23.2873 17.1262V19.2498C23.2873 20.0642 23.4891 20.848 23.8677 21.5445C22.6821 22.5748 21.9052 24.009 21.6973 25.574C19.8687 23.834 18.7899 21.3917 18.7899 18.82C18.7899 13.6862 22.9665 9.50952 28.1004 9.50952C33.2341 9.50952 37.4109 13.6862 37.4109 18.82Z" fill="black"/>
<path d="M44.1794 13.3213C43.5322 13.3213 43.0075 13.8458 43.0075 14.4931V23.1455C43.0075 23.7928 43.5322 24.3174 44.1794 24.3174H62.0533C62.7006 24.3174 63.2251 23.7928 63.2251 23.1455V14.4931C63.2251 13.8458 62.7006 13.3213 62.0533 13.3213H44.1794ZM60.8814 21.9736H45.3512V15.665H60.8814V21.9736Z" fill="black"/>
</svg>
