<svg width="80" height="80" viewBox="0 0 80 80" fill="none" xmlns="http://www.w3.org/2000/svg">
<path d="M70.6667 20.5067C70.6667 32.16 64.2534 37.44 59.2267 42.16L55.5867 35.9467C55.1163 35.1534 54.2624 34.667 53.3401 34.667C52.4178 34.667 51.5638 35.1534 51.0934 35.9467L35.6267 62.3467C33.1467 60.2533 18.8534 48.16 14.1734 43.4933C9.04007 38.3867 1.3334 33.28 1.3334 20.4933C1.3334 7.70668 9.04007 1.33334 19.3067 1.33334C26.3404 1.37115 32.7715 5.31096 36.0001 11.56C39.2286 5.31096 45.6597 1.37115 52.6934 1.33334C62.9601 1.33334 70.6667 7.72001 70.6667 20.5067Z" fill="#EF314C"/>
<path d="M47.0934 35.9467L32.9601 60.08C34.1947 61.1293 35.1467 61.9347 35.6267 62.3467L51.0934 35.9467C51.1672 35.8362 51.2492 35.7314 51.3388 35.6333C50.8033 34.9756 49.9803 34.6208 49.1344 34.6833C48.2885 34.7457 47.5265 35.2174 47.0934 35.9467Z" fill="#BB193B"/>
<path d="M52.6935 1.33334C52.0268 1.33334 51.3841 1.36801 50.7601 1.42934C59.9748 2.24401 66.6668 8.59468 66.6668 20.5067C66.6668 30.228 62.2041 35.5093 57.8068 39.736L59.2268 42.16C64.2535 37.44 70.6668 32.16 70.6668 20.5067C70.6668 7.72001 62.9601 1.33334 52.6935 1.33334V1.33334Z" fill="#BB193B"/>
<path d="M76.0801 78.6667H30.6001C29.6719 78.6684 28.8134 78.1744 28.3485 77.3711C27.8836 76.5678 27.8829 75.5773 28.3467 74.7734L35.6267 62.3467L51.0934 35.9467C51.5638 35.1534 52.4178 34.667 53.3401 34.667C54.2624 34.667 55.1163 35.1534 55.5867 35.9467L59.2267 42.16L78.3067 74.7734C78.778 75.5719 78.7848 76.5619 78.3244 77.3669C77.8641 78.1718 77.0074 78.668 76.0801 78.6667Z" fill="#FFDC00"/>
<path d="M78.3067 74.7733L59.2267 42.16L55.5867 35.9467C55.153 35.2174 54.3906 34.7458 53.5444 34.6834C52.6982 34.6209 51.8748 34.9756 51.3387 35.6333C51.4296 35.731 51.5125 35.8358 51.5867 35.9467L55.2267 42.16L74.3067 74.7733C74.778 75.5719 74.7848 76.5619 74.3244 77.3669C73.8641 78.1718 73.0074 78.668 72.0801 78.6667H76.0801C77.0074 78.668 77.8641 78.1718 78.3244 77.3669C78.7848 76.5619 78.778 75.5719 78.3067 74.7733Z" fill="#FEC108"/>
<path d="M53.3334 73.3333C54.8061 73.3333 56 72.1394 56 70.6667C56 69.1939 54.8061 68 53.3334 68C51.8606 68 50.6667 69.1939 50.6667 70.6667C50.6667 72.1394 51.8606 73.3333 53.3334 73.3333Z" fill="#F44335"/>
<path d="M56 48C56 46.5273 54.8061 45.3333 53.3334 45.3333C51.8606 45.3333 50.6667 46.5273 50.6667 48V60C50.6667 61.4728 51.8606 62.6667 53.3334 62.6667C54.8061 62.6667 56 61.4728 56 60V48Z" fill="#F44335"/>
<path d="M11.0053 42.3213C14.2627 45.352 16.072 47.536 33.912 62.6427L27.1973 74.1093C26.4947 75.3241 26.494 76.8215 27.1955 78.0369C27.897 79.2523 29.194 80.0008 30.5973 80H76.0747C77.4797 80.0017 78.778 79.2507 79.4772 78.032C80.1764 76.8133 80.1693 75.3134 79.4587 74.1013C59.4773 39.968 60.8547 42.464 60.988 42.34C65.8947 37.7733 72 32.0907 72 20.5067C72 7.85733 64.6013 0 52.6933 0C45.9742 0.00384027 39.7049 3.37734 36 8.98267C32.2951 3.37734 26.0258 0.00384027 19.3067 0C7.39867 0 0 7.85333 0 20.4933C0 32.0853 6.10133 37.7613 11.0053 42.3213ZM76.0747 77.3333H30.5973C30.1479 77.334 29.7322 77.0949 29.5067 76.7061C29.2813 76.3173 29.2802 75.8378 29.504 75.448L52.2427 36.62C52.4728 36.2351 52.8882 35.9995 53.3367 35.9995C53.7851 35.9995 54.2005 36.2351 54.4307 36.62L77.156 75.4467C77.3848 75.834 77.3879 76.3143 77.1642 76.7046C76.9405 77.0949 76.5245 77.3349 76.0747 77.3333ZM19.3067 2.66667C25.8298 2.72272 31.7903 6.37182 34.8067 12.156C35.0573 12.5764 35.5106 12.8339 36 12.8339C36.4894 12.8339 36.9427 12.5764 37.1933 12.156C40.2097 6.37182 46.1702 2.72272 52.6933 2.66667C63.112 2.66667 69.3333 9.33333 69.3333 20.5067C69.3333 30.6667 64.2013 35.6987 59.5307 40.052L56.7307 35.2667C56.0209 34.0666 54.7302 33.3305 53.336 33.3305C51.9418 33.3305 50.6511 34.0666 49.9413 35.2667L35.28 60.3067C30.9213 56.6133 19.2187 46.6413 15.1133 42.548C9.588 37.048 2.66667 32.4813 2.66667 20.4933C2.66667 9.33333 8.888 2.66667 19.3067 2.66667Z" fill="black"/>
<path d="M14.6667 29.34H23.32C24.166 29.3396 24.9615 28.9378 25.464 28.2573L30.7227 21.3693L40.5747 33.6C41.0614 34.2494 41.8173 34.6419 42.6285 34.6663C43.4397 34.6907 44.2179 34.3443 44.7427 33.7253L48.6427 29.34H57.3334C58.0697 29.34 58.6667 28.743 58.6667 28.0066C58.6667 27.2703 58.0697 26.6733 57.3334 26.6733H48.64C47.8531 26.6645 47.1044 27.0125 46.604 27.62L42.6787 31.964L32.8214 19.7333C32.3131 19.0653 31.5201 18.6755 30.6807 18.6813C29.8413 18.687 29.0537 19.0877 28.5547 19.7627L23.328 26.68H14.6667C13.9303 26.68 13.3334 27.2769 13.3334 28.0133C13.3334 28.7497 13.9303 29.3467 14.6667 29.3467V29.34Z" fill="black"/>
<path d="M10.6666 28.0267C10.6702 27.673 10.5331 27.3325 10.2856 27.0799C10.038 26.8274 9.70028 26.6835 9.34665 26.68L8.01332 26.6667C7.28073 26.6686 6.68328 27.2543 6.66665 27.9867C6.66309 28.3403 6.80017 28.6808 7.04772 28.9334C7.29528 29.1859 7.63302 29.3298 7.98665 29.3333L9.33332 29.3467C10.0645 29.3467 10.6593 28.7578 10.6666 28.0267Z" fill="black"/>
<path d="M62.6668 29.3333H64.0001C64.7365 29.3333 65.3334 28.7364 65.3334 28C65.3334 27.2636 64.7365 26.6667 64.0001 26.6667H62.6668C61.9304 26.6667 61.3334 27.2636 61.3334 28C61.3334 28.7364 61.9304 29.3333 62.6668 29.3333Z" fill="black"/>
<path d="M53.3333 66.6667C51.1242 66.6667 49.3333 68.4575 49.3333 70.6667C49.3333 72.8758 51.1242 74.6667 53.3333 74.6667C55.5424 74.6667 57.3333 72.8758 57.3333 70.6667C57.3333 68.4575 55.5424 66.6667 53.3333 66.6667ZM53.3333 72C52.5969 72 52 71.4031 52 70.6667C52 69.9303 52.5969 69.3334 53.3333 69.3334C54.0697 69.3334 54.6666 69.9303 54.6666 70.6667C54.6666 71.4031 54.0697 72 53.3333 72Z" fill="black"/>
<path d="M49.3333 48V60C49.3333 62.2091 51.1242 64 53.3333 64C55.5424 64 57.3333 62.2091 57.3333 60V48C57.3333 45.7909 55.5424 44 53.3333 44C51.1242 44 49.3333 45.7909 49.3333 48ZM54.6666 48V60C54.6666 60.7364 54.0697 61.3333 53.3333 61.3333C52.5969 61.3333 52 60.7364 52 60V48C52 47.2636 52.5969 46.6667 53.3333 46.6667C54.0697 46.6667 54.6666 47.2636 54.6666 48Z" fill="black"/>
</svg>
