<svg width="59" height="59" viewBox="0 0 59 59" fill="none" xmlns="http://www.w3.org/2000/svg">
<g clip-path="url(#clip0)">
<path d="M49.7405 8.5541C44.2278 3.04146 36.941 0 29.1473 0C21.3536 0 14.0667 3.04146 8.5541 8.5541C3.04146 14.0667 0 21.3536 0 29.1473C0 36.941 3.04146 44.2278 8.5541 49.7405C14.0667 55.2531 21.3536 58.2946 29.1473 58.2946C36.941 58.2946 44.2278 55.2531 49.7405 49.7405C55.2531 44.2278 58.2946 36.941 58.2946 29.1473C58.2946 21.3536 55.2531 14.0667 49.7405 8.5541ZM44.0377 25.5989L52.7186 24.2683C53.0354 25.8524 53.2255 27.4998 53.2255 29.1473C53.2255 30.7947 53.0354 32.4422 52.7186 34.0263L44.0377 32.6957C44.5447 30.3512 44.5447 27.9434 44.0377 25.5989ZM51.6414 20.5298L42.6437 21.9238C41.9467 20.5932 41.0597 19.3893 39.9825 18.3121C38.9053 17.2349 37.638 16.2845 36.3707 15.6508L37.7647 6.65318C40.8696 7.85709 43.7843 9.69464 46.1921 12.1025C48.5999 14.5736 50.4375 17.425 51.6414 20.5298ZM29.1473 39.4122C26.4226 39.4122 23.8247 38.335 21.9238 36.4341C19.9596 34.4698 18.9457 31.9353 18.9457 29.2106C18.9457 26.486 20.0229 23.8881 21.9238 21.9872C23.9515 19.9596 26.5494 19.0091 29.1473 19.0091C31.7452 19.0091 34.4065 20.0229 36.3707 21.9872C38.335 23.9515 39.3488 26.486 39.3488 29.2106C39.3488 31.9353 38.2717 34.5332 36.3707 36.4341C34.4698 38.335 31.8719 39.4122 29.1473 39.4122ZM29.1473 5.06909C30.7947 5.06909 32.4422 5.25918 34.0263 5.576L32.6957 14.2568C30.3512 13.6866 27.9434 13.6866 25.5989 14.2568L24.2683 5.576C25.8524 5.25918 27.4998 5.06909 29.1473 5.06909ZM12.1025 12.1025C14.5103 9.69464 17.425 7.79373 20.5298 6.65318L21.9238 15.6508C20.5932 16.3478 19.3893 17.2349 18.3121 18.3121C17.2349 19.3893 16.3478 20.6566 15.5875 21.9238L6.58982 20.5298C7.85709 17.425 9.69464 14.5736 12.1025 12.1025ZM5.06909 29.1473C5.06909 27.4998 5.25918 25.8524 5.576 24.2683L14.2568 25.5989C14.0034 26.7395 13.8133 27.9434 13.8133 29.1473C13.8133 30.3512 13.94 31.5551 14.2568 32.6957L5.576 34.0263C5.25918 32.4422 5.06909 30.7947 5.06909 29.1473ZM6.65318 37.7647L15.6508 36.3707C16.3478 37.7014 17.2349 38.9053 18.3755 39.9825C19.4526 41.0597 20.7199 41.9467 21.9872 42.7071L20.5932 51.7048C17.4884 50.5008 14.5736 48.6633 12.1658 46.2555C9.69464 43.7209 7.85709 40.8696 6.65318 37.7647ZM29.1473 53.2255C27.4998 53.2255 25.8524 53.0354 24.2683 52.7186L25.5989 44.0377C26.7395 44.2912 27.9434 44.4813 29.1473 44.4813C30.3512 44.4813 31.5551 44.3546 32.6957 44.0377L34.0263 52.7186C32.4422 53.0354 30.7947 53.2255 29.1473 53.2255ZM46.1921 46.1921C43.7843 48.5999 40.8696 50.5008 37.7647 51.6414L36.3707 42.6437C37.7014 41.9467 38.9053 41.0597 39.9825 39.9191C41.0597 38.8419 42.0101 37.5747 42.6437 36.3074L51.6414 37.7014C50.4375 40.8696 48.5999 43.7209 46.1921 46.1921Z" fill="#183E37"/>
</g>
<defs>
<clipPath id="clip0">
<rect width="58.2946" height="58.2946" fill="white"/>
</clipPath>
</defs>
</svg>
