<svg width="59" height="43" viewBox="0 0 59 43" fill="none" xmlns="http://www.w3.org/2000/svg">
<path d="M5.44242 0.0330824C3.11974 0.332492 1.1022 2.00458 0.337085 4.27549C0.0137318 5.23821 0.0410574 3.81486 0.018286 20.7569C0.0091775 31.2132 0.018286 36.1649 0.0501659 36.4644C0.168577 37.5561 0.578461 38.6201 1.22061 39.5045C1.52119 39.9237 2.14968 40.5594 2.54135 40.8404C3.19716 41.3148 4.06247 41.7155 4.86858 41.909C5.25569 42.0011 5.40143 42.0057 15.1658 42.0426C20.6127 42.0656 31.3425 42.0794 39.0073 42.0702L52.9434 42.0564L53.3305 41.9597C53.9544 41.8031 54.2732 41.6833 54.8562 41.3931C56.7189 40.4626 57.9713 38.657 58.2446 36.515C58.281 36.2433 58.2947 31.5448 58.2947 20.6463C58.2901 7.86841 58.281 5.11844 58.2309 4.91116C58.0396 4.11427 57.7345 3.4049 57.3109 2.76002C56.9876 2.26714 56.3864 1.62686 55.8854 1.24454C55.4847 0.935919 54.5192 0.429225 54.0683 0.286429C53.9317 0.240366 53.6356 0.162059 53.4079 0.106783L52.9889 0.00544461L29.3751 0.000838303C15.8899 -0.003768 5.62459 0.0100509 5.44242 0.0330824ZM41.1706 14.612C33.5286 22.3414 29.917 25.9666 29.7622 26.0587C29.4479 26.243 29.079 26.2476 28.7739 26.0633C28.6418 25.985 24.4565 21.7887 17.3564 14.6166L6.14833 3.29895H29.2476H52.3513L41.1706 14.612ZM55.1522 20.72L55.1294 36.4874L55.0292 36.8421C54.7651 37.7818 54.3324 38.3069 53.5446 38.6431L53.2166 38.7813L45.3514 30.794L37.4862 22.8067L46.3078 13.8796C51.1581 8.97392 55.1385 4.95722 55.1522 4.95722C55.1659 4.95722 55.1659 12.0509 55.1522 20.72ZM12.2055 13.8704L20.8814 22.6454L12.9251 30.6927L4.96877 38.7399L4.68641 38.6063C4.12623 38.3345 3.73912 37.8094 3.56606 37.0862C3.49319 36.7868 3.48408 35.6997 3.47497 20.9273C3.46586 12.2214 3.47497 5.09541 3.49319 5.09541C3.51596 5.09541 7.43263 9.04302 12.2055 13.8704ZM25.8911 27.6893C27.945 29.7852 28.7147 30.5406 28.8468 30.5959C29.0745 30.6881 29.4525 30.6881 29.6757 30.5913C29.8032 30.5406 30.6184 29.7438 32.5631 27.7815L35.2728 25.0407L42.1179 31.964C45.8797 35.7688 48.9584 38.8919 48.9584 38.9057C48.9584 38.9195 40.0138 38.9287 29.079 38.9287C18.1443 38.9287 9.19968 38.9195 9.19968 38.9057C9.19968 38.8781 23.0583 24.8565 23.0902 24.8565C23.1039 24.8565 24.3654 26.1278 25.8911 27.6893Z" fill="#183E37"/>
</svg>
