<svg width="25" height="25" viewBox="0 0 25 25" fill="none" xmlns="http://www.w3.org/2000/svg">
<rect width="25" height="25" rx="2" fill="#00939F"/>
<path d="M12.5 25C19.4036 25 25 19.4036 25 12.5C25 5.59644 19.4036 0 12.5 0C5.59644 0 0 5.59644 0 12.5C0 19.4036 5.59644 25 12.5 25Z" fill="#00939F"/>
<path d="M15.6425 12.9894H13.412V21.1608H10.0326V12.9894H8.42542V10.1176H10.0326V8.25925C10.0326 6.93032 10.6639 4.84937 13.4421 4.84937L15.9453 4.85984V7.64737H14.129C13.8311 7.64737 13.4122 7.79622 13.4122 8.43015V10.1203H15.9377L15.6425 12.9894Z" fill="white"/>
</svg>
