<svg width="25" height="25" viewBox="0 0 25 25" fill="none" xmlns="http://www.w3.org/2000/svg">
<path d="M12.4997 10.0142C11.1294 10.0142 10.0136 11.1294 10.0136 12.4997C10.0136 13.8706 11.1294 14.9864 12.4997 14.9864C13.8706 14.9864 14.9858 13.8706 14.9858 12.4997C14.9858 11.1294 13.8706 10.0142 12.4997 10.0142ZM12.4997 10.0142C11.1294 10.0142 10.0136 11.1294 10.0136 12.4997C10.0136 13.8706 11.1294 14.9864 12.4997 14.9864C13.8706 14.9864 14.9858 13.8706 14.9858 12.4997C14.9858 11.1294 13.8706 10.0142 12.4997 10.0142ZM16.6414 5.96077H8.35857C7.03651 5.96077 5.96077 7.03651 5.96077 8.35857V16.6414C5.96077 17.9635 7.03651 19.0392 8.35857 19.0392H16.6414C17.9635 19.0392 19.0392 17.9635 19.0392 16.6414V8.35857C19.0392 7.03651 17.9635 5.96077 16.6414 5.96077ZM12.4997 16.8055C10.1261 16.8055 8.19454 14.8739 8.19454 12.4997C8.19454 10.1261 10.1261 8.19454 12.4997 8.19454C14.8739 8.19454 16.8055 10.1261 16.8055 12.4997C16.8055 14.8739 14.8739 16.8055 12.4997 16.8055ZM16.9437 9.08488C16.382 9.08488 15.925 8.62792 15.925 8.06618C15.925 7.50444 16.382 7.04748 16.9437 7.04748C17.5054 7.04748 17.9624 7.50444 17.9624 8.06618C17.9624 8.62792 17.5054 9.08488 16.9437 9.08488ZM12.4997 10.0142C11.1294 10.0142 10.0136 11.1294 10.0136 12.4997C10.0136 13.8706 11.1294 14.9864 12.4997 14.9864C13.8706 14.9864 14.9858 13.8706 14.9858 12.4997C14.9858 11.1294 13.8706 10.0142 12.4997 10.0142ZM16.6414 5.96077H8.35857C7.03651 5.96077 5.96077 7.03651 5.96077 8.35857V16.6414C5.96077 17.9635 7.03651 19.0392 8.35857 19.0392H16.6414C17.9635 19.0392 19.0392 17.9635 19.0392 16.6414V8.35857C19.0392 7.03651 17.9635 5.96077 16.6414 5.96077ZM12.4997 16.8055C10.1261 16.8055 8.19454 14.8739 8.19454 12.4997C8.19454 10.1261 10.1261 8.19454 12.4997 8.19454C14.8739 8.19454 16.8055 10.1261 16.8055 12.4997C16.8055 14.8739 14.8739 16.8055 12.4997 16.8055ZM16.9437 9.08488C16.382 9.08488 15.925 8.62792 15.925 8.06618C15.925 7.50444 16.382 7.04748 16.9437 7.04748C17.5054 7.04748 17.9624 7.50444 17.9624 8.06618C17.9624 8.62792 17.5054 9.08488 16.9437 9.08488ZM12.4997 10.0142C11.1294 10.0142 10.0136 11.1294 10.0136 12.4997C10.0136 13.8706 11.1294 14.9864 12.4997 14.9864C13.8706 14.9864 14.9858 13.8706 14.9858 12.4997C14.9858 11.1294 13.8706 10.0142 12.4997 10.0142ZM2 0C0.89543 0 0 0.895431 0 2V23C0 24.1046 0.895431 25 2 25H23C24.1046 25 25 24.1046 25 23V2C25 0.89543 24.1046 0 23 0H2ZM20.8583 16.6414C20.8583 18.9668 18.9668 20.8583 16.6414 20.8583H8.35857C6.03318 20.8583 4.14171 18.9668 4.14171 16.6414V8.35857C4.14171 6.03318 6.03318 4.14171 8.35857 4.14171H16.6414C18.9668 4.14171 20.8583 6.03318 20.8583 8.35857V16.6414ZM16.6414 5.96077H8.35857C7.03651 5.96077 5.96077 7.03651 5.96077 8.35857V16.6414C5.96077 17.9635 7.03651 19.0392 8.35857 19.0392H16.6414C17.9635 19.0392 19.0392 17.9635 19.0392 16.6414V8.35857C19.0392 7.03651 17.9635 5.96077 16.6414 5.96077ZM12.4997 16.8055C10.1261 16.8055 8.19454 14.8739 8.19454 12.4997C8.19454 10.1261 10.1261 8.19454 12.4997 8.19454C14.8739 8.19454 16.8055 10.1261 16.8055 12.4997C16.8055 14.8739 14.8739 16.8055 12.4997 16.8055ZM16.9437 9.08488C16.382 9.08488 15.925 8.62792 15.925 8.06618C15.925 7.50444 16.382 7.04748 16.9437 7.04748C17.5054 7.04748 17.9624 7.50444 17.9624 8.06618C17.9624 8.62792 17.5054 9.08488 16.9437 9.08488ZM12.4997 10.0142C11.1294 10.0142 10.0136 11.1294 10.0136 12.4997C10.0136 13.8706 11.1294 14.9864 12.4997 14.9864C13.8706 14.9864 14.9858 13.8706 14.9858 12.4997C14.9858 11.1294 13.8706 10.0142 12.4997 10.0142ZM12.4997 10.0142C11.1294 10.0142 10.0136 11.1294 10.0136 12.4997C10.0136 13.8706 11.1294 14.9864 12.4997 14.9864C13.8706 14.9864 14.9858 13.8706 14.9858 12.4997C14.9858 11.1294 13.8706 10.0142 12.4997 10.0142ZM12.4997 10.0142C11.1294 10.0142 10.0136 11.1294 10.0136 12.4997C10.0136 13.8706 11.1294 14.9864 12.4997 14.9864C13.8706 14.9864 14.9858 13.8706 14.9858 12.4997C14.9858 11.1294 13.8706 10.0142 12.4997 10.0142ZM16.6414 5.96077H8.35857C7.03651 5.96077 5.96077 7.03651 5.96077 8.35857V16.6414C5.96077 17.9635 7.03651 19.0392 8.35857 19.0392H16.6414C17.9635 19.0392 19.0392 17.9635 19.0392 16.6414V8.35857C19.0392 7.03651 17.9635 5.96077 16.6414 5.96077ZM12.4997 16.8055C10.1261 16.8055 8.19454 14.8739 8.19454 12.4997C8.19454 10.1261 10.1261 8.19454 12.4997 8.19454C14.8739 8.19454 16.8055 10.1261 16.8055 12.4997C16.8055 14.8739 14.8739 16.8055 12.4997 16.8055ZM16.9437 9.08488C16.382 9.08488 15.925 8.62792 15.925 8.06618C15.925 7.50444 16.382 7.04748 16.9437 7.04748C17.5054 7.04748 17.9624 7.50444 17.9624 8.06618C17.9624 8.62792 17.5054 9.08488 16.9437 9.08488ZM12.4997 10.0142C11.1294 10.0142 10.0136 11.1294 10.0136 12.4997C10.0136 13.8706 11.1294 14.9864 12.4997 14.9864C13.8706 14.9864 14.9858 13.8706 14.9858 12.4997C14.9858 11.1294 13.8706 10.0142 12.4997 10.0142ZM12.4997 10.0142C11.1294 10.0142 10.0136 11.1294 10.0136 12.4997C10.0136 13.8706 11.1294 14.9864 12.4997 14.9864C13.8706 14.9864 14.9858 13.8706 14.9858 12.4997C14.9858 11.1294 13.8706 10.0142 12.4997 10.0142ZM12.4997 10.0142C11.1294 10.0142 10.0136 11.1294 10.0136 12.4997C10.0136 13.8706 11.1294 14.9864 12.4997 14.9864C13.8706 14.9864 14.9858 13.8706 14.9858 12.4997C14.9858 11.1294 13.8706 10.0142 12.4997 10.0142ZM16.6414 5.96077H8.35857C7.03651 5.96077 5.96077 7.03651 5.96077 8.35857V16.6414C5.96077 17.9635 7.03651 19.0392 8.35857 19.0392H16.6414C17.9635 19.0392 19.0392 17.9635 19.0392 16.6414V8.35857C19.0392 7.03651 17.9635 5.96077 16.6414 5.96077ZM12.4997 16.8055C10.1261 16.8055 8.19454 14.8739 8.19454 12.4997C8.19454 10.1261 10.1261 8.19454 12.4997 8.19454C14.8739 8.19454 16.8055 10.1261 16.8055 12.4997C16.8055 14.8739 14.8739 16.8055 12.4997 16.8055ZM16.9437 9.08488C16.382 9.08488 15.925 8.62792 15.925 8.06618C15.925 7.50444 16.382 7.04748 16.9437 7.04748C17.5054 7.04748 17.9624 7.50444 17.9624 8.06618C17.9624 8.62792 17.5054 9.08488 16.9437 9.08488ZM12.4997 10.0142C11.1294 10.0142 10.0136 11.1294 10.0136 12.4997C10.0136 13.8706 11.1294 14.9864 12.4997 14.9864C13.8706 14.9864 14.9858 13.8706 14.9858 12.4997C14.9858 11.1294 13.8706 10.0142 12.4997 10.0142Z" fill="#00939F"/>
</svg>
