<svg width="58" height="58" viewBox="0 0 58 58" fill="none" xmlns="http://www.w3.org/2000/svg">
<g clip-path="url(#clip0)">
<path d="M47.7605 11.493H44.6745V8.40679C44.6745 7.32348 43.7961 6.44495 42.7126 6.44495C41.6291 6.44495 40.7508 7.32329 40.7508 8.40679V11.493H37.6648C36.5815 11.493 35.7029 12.3713 35.7029 13.4548C35.7029 14.5383 36.5813 15.4167 37.6648 15.4167H40.7508V18.5027C40.7508 19.586 41.6291 20.4645 42.7126 20.4645C43.7961 20.4645 44.6745 19.5862 44.6745 18.5027V15.4167H47.7605C48.8438 15.4167 49.7223 14.5383 49.7223 13.4548C49.7223 12.3713 48.8438 11.493 47.7605 11.493Z" fill="#183E37"/>
<path d="M16.8965 29.4916L21.7059 24.7074C22.4719 23.9413 22.4719 22.6991 21.7059 21.9328L10.158 10.385C9.3917 9.61908 8.14987 9.61908 7.3834 10.385L2.76429 15.0043C-0.256287 18.0246 -0.82262 22.9796 1.16961 28.9561C3.00893 34.474 6.85636 40.3474 12.0027 45.4937C19.6703 53.1611 28.4049 57.473 35.0482 57.473C38.056 57.473 40.6352 56.5889 42.4922 54.7322L47.1115 50.1128C47.8776 49.3468 47.8776 48.1046 47.1115 47.3383L35.5636 35.7904C34.7973 35.0245 33.5555 35.0245 32.789 35.7904L28.0046 40.6C26.9951 41.1077 23.743 40.233 20.5029 36.9929C17.2631 33.7531 16.3892 30.5008 16.8965 29.4916ZM34.1764 39.9523L42.9499 48.7259L41.1052 50.5706L32.3317 41.7971L34.1764 39.9523ZM8.77078 14.5467L17.5443 23.3202L15.6996 25.165L6.92604 16.3915L8.77078 14.5467ZM29.7812 52.6046C24.8298 50.954 19.5011 47.4434 14.7771 42.7192C10.0529 37.9951 6.54242 32.6665 4.89181 27.715C3.77734 24.372 3.64011 21.49 4.45128 19.4656L13.1923 28.2066C12.0797 31.2406 13.7815 35.82 17.7286 39.7675C20.8804 42.9191 24.4359 44.6411 27.2854 44.6411C28.0054 44.6411 28.6799 44.5308 29.2917 44.3063L38.0304 53.0452C36.0064 53.8561 33.1243 53.7191 29.7812 52.6046Z" fill="#183E37"/>
<path d="M51.6104 0.0115967H33.125C29.8858 0.0115967 27.2505 2.64681 27.2505 5.88609V21.4479C27.2505 24.6871 29.8858 27.3224 33.125 27.3224H36.0208V31.2075C36.0208 31.9508 36.4406 32.6297 37.1052 32.9623C37.3828 33.1012 37.6832 33.1694 37.9822 33.1694C38.3991 33.1694 38.8133 33.0366 39.1594 32.777L46.4321 27.3225H51.6102C54.8495 27.3225 57.4847 24.6873 57.4847 21.4481V5.88609C57.4849 2.64681 54.8497 0.0115967 51.6104 0.0115967ZM53.5612 21.4479C53.5612 22.5236 52.6862 23.3987 51.6104 23.3987H45.7785C45.354 23.3987 44.941 23.5365 44.6015 23.791L39.9445 27.2836V25.3603C39.9445 24.277 39.0661 23.3985 37.9826 23.3985H33.125C32.0493 23.3985 31.1742 22.5234 31.1742 21.4477V5.88609C31.1742 4.81033 32.0493 3.93528 33.125 3.93528H51.6104C52.6862 3.93528 53.5612 4.81033 53.5612 5.88609V21.4479Z" fill="#183E37"/>
</g>
<defs>
<clipPath id="clip0">
<rect width="57.4849" height="57.4849" fill="white"/>
</clipPath>
</defs>
</svg>
